HIERARCHY
ROOT Hips
{
	OFFSET 0.000000 0.000000 0.000000
	CHANNELS 6 Xposition Yposition Zposition Zrotation Yrotation Xrotation 
	JOINT LHipJoint
	{
		OFFSET 0.000000 0.000000 0.000000
		CHANNELS 3 Zrotation Yrotation Xrotation
		JOINT LeftUpLeg
		{
			OFFSET 1.363060 -1.794630 0.839290
			CHANNELS 3 Zrotation Yrotation Xrotation
			JOINT LeftLeg
			{
				OFFSET 2.448110 -6.726130 0.000000
				CHANNELS 3 Zrotation Yrotation Xrotation
				JOINT LeftFoot
				{
					OFFSET 2.562200 -7.039590 0.000000
					CHANNELS 3 Zrotation Yrotation Xrotation
					JOINT LeftToeBase
					{
						OFFSET 0.157640 -0.433110 2.322550
						CHANNELS 3 Zrotation Yrotation Xrotation
						End Site
						{
							OFFSET 0.000000 0.000000 0.000000
						}
					}
				}
			}
		}
	}
	JOINT RHipJoint
	{
		OFFSET 0.000000 0.000000 0.000000
		CHANNELS 3 Zrotation Yrotation Xrotation
		JOINT RightUpLeg
		{
			OFFSET -1.305520 -1.794630 0.839290
			CHANNELS 3 Zrotation Yrotation Xrotation
			JOINT RightLeg
			{
				OFFSET -2.542530 -6.985550 0.000000
				CHANNELS 3 Zrotation Yrotation Xrotation
				JOINT RightFoot
				{
					OFFSET -2.568260 -7.056230 0.000000
					CHANNELS 3 Zrotation Yrotation Xrotation
					JOINT RightToeBase
					{
						OFFSET -0.164730 -0.452590 2.363150
						CHANNELS 3 Zrotation Yrotation Xrotation
						End Site
						{
							OFFSET 0.000000 0.000000 0.000000
						}
					}
				}
			}
		}
	}
}
MOTION
Frames: 25
Frame Time: 0.008333
-10.973674 16.632740 -2.612612 5.166857 83.656971 21.355877 -9.827959 -0.914779 1.324009 -7.706185 1.170259 -44.881829 -1.734410 0.733270 18.469966 0.903973 5.992986 11.588818 2.349600 0.000000 -32.650800 10.112044 -2.630844 -1.797300 0.443721 -2.723803 1.537422 1.484545 -1.936726 24.559209 0.576680 6.717217 1.820602 0.875900 -0.000001 -85.226900
-10.819307 16.658914 -2.637278 7.165482 83.565895 23.401844 -9.779147 -0.900607 1.259949 -8.065342 0.996324 -44.652473 -1.723006 0.755265 19.417355 0.958379 6.369114 10.602168 2.382900 -0.000000 -32.187200 10.304439 -2.692424 -1.810188 -0.129841 -2.974901 0.240401 1.241438 -2.203150 27.122229 0.512262 6.639266 3.668442 1.084000 0.000000 -85.823200
-10.669649 16.687740 -2.663562 8.496444 83.435548 24.797243 -9.727018 -0.879691 1.206981 -8.346454 0.807722 -44.335501 -1.716542 0.760682 20.177102 1.016695 6.738991 9.502710 2.388900 0.000000 -31.970800 10.485872 -2.719742 -1.821682 -0.593136 -3.159728 -1.164616 0.975043 -2.449661 29.797876 0.408243 6.370452 5.672968 1.280000 -0.000000 -85.705000
-10.524559 16.718759 -2.691301 9.210617 83.265816 25.590136 -9.679857 -0.854203 1.161039 -8.558666 0.632590 -43.940363 -1.715421 0.752112 20.740427 1.076621 7.087963 8.373571 2.369699 0.000000 -31.944300 10.649401 -2.711988 -1.828637 -0.941038 -3.268749 -2.654627 0.692520 -2.669799 32.545939 0.262974 5.884412 7.796531 1.433200 -0.000000 -84.756600
-10.383807 16.751503 -2.720254 9.369772 83.060565 25.837204 -9.643307 -0.825894 1.117320 -8.711455 0.498113 -43.477086 -1.719104 0.732464 21.109944 1.135103 7.403441 7.289117 2.330700 -0.000000 -32.043400 10.791081 -2.669942 -1.829697 -1.171567 -3.302948 -4.202751 0.404188 -2.858991 35.322546 0.077729 5.163005 9.981312 1.506100 -0.000001 -82.918500
-10.247060 16.785567 -2.750059 9.071841 82.828456 25.629471 -9.619929 -0.796199 1.070853 -8.816765 0.425276 -42.954453 -1.726748 0.704391 21.296262 1.188752 7.676256 6.309221 2.279600 0.000000 -32.204600 10.910303 -2.596242 -1.825657 -1.289776 -3.274066 -5.780526 0.122051 -3.015773 38.082801 -0.143062 4.198519 12.151198 1.459500 0.000000 -80.235000
-10.113972 16.820651 -2.780310 8.430779 82.580676 25.073277 -9.610157 -0.765928 1.017391 -8.887339 0.427483 -42.379372 -1.737397 0.670348 21.316872 1.234449 7.900568 5.475879 2.224299 -0.000000 -32.372000 11.008308 -2.495318 -1.819126 -1.305156 -3.201536 -7.359878 -0.142502 -3.141868 40.782109 -0.392354 2.992630 14.220338 1.259800 0.000000 -76.909800
-9.984083 16.856550 -2.810462 7.586332 82.330712 24.302044 -9.612210 -0.735435 0.954139 -8.939023 0.507581 -41.756900 -1.750637 0.631974 21.191666 1.269781 8.074354 4.811212 2.171700 -0.000000 -32.503301 11.088367 -2.373377 -1.813266 -1.234684 -3.108073 -8.917427 -0.380500 -3.242286 43.381579 -0.661093 1.560021 16.095697 0.886100 -0.000000 -73.184100
-9.856975 16.893073 -2.840291 6.601130 82.090834 23.373777 -9.625980 -0.704647 0.880155 -8.975576 0.665925 -41.095593 -1.765650 0.591825 20.947586 1.293050 8.192426 4.315546 2.124300 0.000001 -32.575200 11.150225 -2.236582 -1.811804 -1.083565 -3.009742 -10.429113 -0.587772 -3.321977 45.840384 -0.940459 -0.079229 17.707056 0.334300 -0.000000 -69.539600
-9.732291 16.929981 -2.869050 5.638741 81.874928 22.449771 -9.646832 -0.673083 0.796031 -9.018175 0.886968 -40.399359 -1.783436 0.549980 20.606463 1.303990 8.259096 3.973975 2.084200 0.000000 -32.564900 11.199885 -2.092529 -1.817178 -0.880784 -2.928297 -11.889405 -0.762903 -3.389941 48.148617 -1.219958 -1.876800 18.958237 -0.372800 -0.000000 -65.996700
-9.609603 16.967244 -2.896868 4.669791 81.692159 21.502041 -9.675870 -0.640012 0.705377 -9.056805 1.160644 -39.680634 -1.803100 0.508710 20.195167 1.302766 8.268967 3.756447 2.047500 -0.000000 -32.486400 11.234426 -1.946259 -1.831634 -0.620907 -2.868904 -13.284913 -0.909256 -3.449446 50.277816 -1.491759 -3.781463 19.816658 -1.194600 0.000000 -62.989600
-9.488601 17.004608 -2.923530 3.740816 81.551929 20.580330 -9.710746 -0.604627 0.612519 -9.094934 1.466495 -38.947909 -1.825048 0.468266 19.735120 1.290516 8.223651 3.625624 2.010300 -0.000000 -32.346700 11.256054 -1.802744 -1.856250 -0.316754 -2.841777 -14.619346 -1.030958 -3.505658 52.227060 -1.747214 -5.716089 20.234322 -2.066300 0.000000 -60.486499
-9.368972 17.041929 -2.948970 2.853115 81.460675 19.692267 -9.749977 -0.566201 0.523660 -9.128484 1.782025 -38.212034 -1.849051 0.428629 19.243342 1.269099 8.126787 3.543840 1.968800 0.000000 -32.166100 11.265591 -1.665429 -1.890622 0.026034 -2.851564 -15.900950 -1.132698 -3.561177 53.995372 -1.978935 -7.595006 20.194584 -2.911600 -0.000001 -58.425800
-9.250763 17.078833 -2.973125 2.016172 81.421888 18.848727 -9.791733 -0.524467 0.441385 -9.158187 2.091790 -37.475775 -1.875621 0.389588 18.733359 1.239757 7.979279 3.475110 1.918300 0.000000 -31.959400 11.264662 -1.536400 -1.934392 0.398030 -2.898939 -17.133899 -1.218255 -3.617722 55.584132 -2.181044 -9.332395 19.710898 -3.655100 -0.000000 -56.737100
-9.133616 17.115194 -2.996210 1.188684 81.435351 18.019740 -9.835157 -0.479099 0.372617 -9.175025 2.375012 -36.751087 -1.903814 0.350427 18.211117 1.204849 7.789135 3.394963 1.858000 0.000001 -31.755500 11.253233 -1.416471 -1.984012 0.799341 -2.978452 -18.333556 -1.289940 -3.674101 56.993153 -2.348216 -10.848004 18.822954 -4.233200 0.000000 -55.268100
-9.017488 17.150675 -3.018263 0.359088 81.497965 17.198769 -9.878762 -0.430332 0.320068 -9.177676 2.619890 -36.042358 -1.933359 0.310297 17.678804 1.166040 7.563797 3.288303 1.787900 0.000000 -31.574600 11.232598 -1.305603 -2.035730 1.223345 -3.081640 -19.509421 -1.348267 -3.729056 58.223199 -2.476801 -12.079597 17.599333 -4.606100 0.000001 -53.909400
-8.902523 17.184975 -3.039416 -0.508778 81.602645 16.350453 -9.922078 -0.378651 0.282862 -9.164275 2.828141 -35.350622 -1.964126 0.269190 17.138517 1.123919 7.305074 3.148892 1.708200 -0.000000 -31.426700 11.203290 -1.202729 -2.085943 1.666898 -3.195620 -20.663572 -1.392648 -3.780173 59.272159 -2.565098 -12.992102 16.134596 -4.766300 -0.000000 -52.636000
-8.788740 17.217807 -3.059765 -1.451027 81.740246 15.440705 -9.964683 -0.324549 0.260190 -9.133184 3.004393 -34.679273 -1.995691 0.227057 16.589769 1.079125 7.017213 2.981567 1.621100 0.000000 -31.323000 11.166074 -1.106651 -2.130127 2.127592 -3.307073 -21.799919 -1.421867 -3.824921 60.139098 -2.612642 -13.573344 14.528944 -4.732000 -0.000000 -51.398400
-8.676020 17.249064 -3.079331 -2.468420 81.900288 14.471492 -10.005372 -0.268705 0.249732 -9.088651 3.153229 -34.027558 -2.027696 0.183343 16.025692 1.032668 6.710300 2.801673 1.531300 0.000000 -31.272800 11.122826 -1.015608 -2.164378 2.596007 -3.403863 -22.922174 -1.434657 -3.861744 60.823275 -2.620724 -13.833128 12.883294 -4.541600 0.000000 -50.164100
-8.564539 17.278531 -3.098080 -3.581883 82.071797 13.417035 -10.044169 -0.211781 0.246339 -9.033337 3.292614 -33.393791 -2.060123 0.138894 15.448115 0.984186 6.384549 2.624061 1.440700 -0.000000 -31.270400 11.074649 -0.928225 -2.186075 3.068508 -3.475269 -24.024956 -1.430730 -3.889116 61.323768 -2.593011 -13.805275 11.291291 -4.245900 0.000000 -48.990800
-8.454311 17.306109 -3.115988 -4.797477 82.244276 12.267198 -10.080902 -0.154576 0.244553 -8.970888 3.439732 -32.776300 -2.092988 0.094560 14.859071 0.933484 6.041511 2.464524 1.351500 -0.000000 -31.307900 11.022874 -0.843172 -2.193654 3.539949 -3.512978 -25.102727 -1.410620 -3.906330 61.640770 -2.534577 -13.535322 9.825853 -3.894200 0.000000 -47.938400
-8.345414 17.331755 -3.132883 -6.092725 82.410607 11.038464 -10.115501 -0.097762 0.239026 -8.907637 3.610132 -32.170955 -2.126529 0.051146 14.263296 0.880334 5.682538 2.335836 1.264900 0.000000 -31.373100 10.968948 -0.760196 -2.186597 4.003146 -3.513897 -26.147727 -1.375386 -3.913769 61.776288 -2.451402 -13.074252 8.532145 -3.526300 0.000000 -47.067000
-8.237863 17.355495 -3.148641 -7.454145 82.564423 9.739324 -10.148081 -0.042128 0.224864 -8.846660 3.816896 -31.575988 -2.160880 0.009834 13.668681 0.824671 5.307756 2.244575 1.181101 0.000000 -31.453100 10.913547 -0.678573 -2.165910 4.454307 -3.476438 -27.152324 -1.326470 -3.911796 61.732737 -2.349913 -12.474265 7.428253 -3.170000 -0.000000 -46.429800
-8.131669 17.377375 -3.163080 -8.841983 82.703742 8.404197 -10.178794 0.011656 0.198651 -8.792167 4.066381 -30.987644 -2.196180 -0.028603 13.084001 0.766799 4.919037 2.191127 1.099900 0.000000 -31.535499 10.857160 -0.598510 -2.133360 4.887436 -3.403734 -28.108477 -1.264946 -3.901490 61.514119 -2.236098 -11.782165 6.503979 -2.839700 0.000000 -46.050999
-8.026743 17.397511 -3.176029 -10.194731 82.829516 7.092852 -10.207605 0.062973 0.159418 -8.748310 4.354084 -30.403999 -2.232312 -0.063910 12.516625 0.707807 4.522808 2.170830 1.021500 -0.000001 -31.609200 10.799744 -0.519893 -2.091036 5.295219 -3.300716 -29.012877 -1.191479 -3.883989 61.125424 -2.115321 -11.038200 5.730748 -2.540700 0.000000 -45.933700
